HIERARCHY
ROOT SpineBase
{
  OFFSET 0.000000 0.000000 0.000000
  CHANNELS 6 Xposition Yposition Zposition Zrotation Xrotation Yrotation
  JOINT SpineMid
  {
    OFFSET 0.000000 29.707067 0.000000
    CHANNELS 3 Zrotation Xrotation Yrotation
    JOINT SpineShoulder
    {
      OFFSET 0.331651 22.165306 -0.520500
      CHANNELS 3 Zrotation Xrotation Yrotation
      JOINT Neck
      {
        OFFSET 0.196271 7.376750 -0.507454
        CHANNELS 3 Zrotation Xrotation Yrotation
        JOINT Head
        {
          OFFSET 5.005202 13.115734 1.836840
          CHANNELS 3 Zrotation Xrotation Yrotation
          End Site
          {
            OFFSET 0 0 0
          }
        }
      }
      JOINT ShoulderLeft
      {
        OFFSET -8.335864 -3.042940 -13.353583
        CHANNELS 3 Zrotation Xrotation Yrotation
        JOINT ElbowLeft
        {
          OFFSET -4.335985 -25.181440 -4.966077
          CHANNELS 3 Zrotation Xrotation Yrotation
          JOINT WristLeft
          {
            OFFSET 4.563448 -23.716786 -2.174450
            CHANNELS 3 Zrotation Xrotation Yrotation
            JOINT HandLeft
            {
              OFFSET 1.586322 -4.155670 0.072463
              CHANNELS 3 Zrotation Xrotation Yrotation
              JOINT HandTipLeft
              {
                OFFSET 0.462833 -6.536936 1.012911
                CHANNELS 3 Zrotation Xrotation Yrotation
                End Site
                {
                  OFFSET 0 0 0
                }
              }
              JOINT ThumbLeft
              {
                OFFSET 2.836647 1.652863 0.206416
                CHANNELS 3 Zrotation Xrotation Yrotation
                End Site
                {
                  OFFSET 0 0 0
                }
              }
            }
          }
        }
      }
      JOINT ShoulderRight
      {
        OFFSET 9.977529 -5.304868 11.317260
        CHANNELS 3 Zrotation Xrotation Yrotation
        JOINT ElbowRight
        {
          OFFSET 0.736649 -27.906248 8.087661
          CHANNELS 3 Zrotation Xrotation Yrotation
          JOINT WristRight
          {
            OFFSET 1.587100 -22.410904 -4.660081
            CHANNELS 3 Zrotation Xrotation Yrotation
            JOINT HandRight
            {
              OFFSET -1.188381 -3.887044 -0.670166
              CHANNELS 3 Zrotation Xrotation Yrotation
              JOINT HandTipRight
              {
                OFFSET -0.723009 -4.374555 -1.804593
                CHANNELS 3 Zrotation Xrotation Yrotation
                End Site
                {
                  OFFSET 0 0 0
                }
              }
              JOINT ThumbRight
              {
                OFFSET 2.825539 -0.199951 -0.443124
                CHANNELS 3 Zrotation Xrotation Yrotation
                End Site
                {
                  OFFSET 0 0 0
                }
              }
            }
          }
        }
      }
    }
  }
  JOINT HipLeft
  {
    OFFSET -3.747252 2.338095 -8.523404
    CHANNELS 3 Zrotation Xrotation Yrotation
    JOINT KneeLeft
    {
      OFFSET -7.003841 -27.359523 -0.537123
      CHANNELS 3 Zrotation Xrotation Yrotation
      JOINT AnkleLeft
      {
        OFFSET -7.766182 -33.845560 4.428924
        CHANNELS 3 Zrotation Xrotation Yrotation
        JOINT FootLeft
        {
          OFFSET 4.242214 -7.530028 -0.473287
          CHANNELS 3 Zrotation Xrotation Yrotation
          End Site
          {
            OFFSET 0 0 0
          }
        }
      }
    }
  }
  JOINT HipRight
  {
    OFFSET 4.666815 -0.413546 1.615863
    CHANNELS 3 Zrotation Xrotation Yrotation
    JOINT KneeRight
    {
      OFFSET -4.300357 -29.168326 6.933837
      CHANNELS 3 Zrotation Xrotation Yrotation
      JOINT AnkleRight
      {
        OFFSET -10.241459 -27.821011 0.250017
        CHANNELS 3 Zrotation Xrotation Yrotation
        JOINT FootRight
        {
          OFFSET 3.425072 -8.269745 -2.783129
          CHANNELS 3 Zrotation Xrotation Yrotation
          End Site
          {
            OFFSET 0 0 0
          }
        }
      }
    }
  }
}
MOTION
Frames: 6
Frame Time: 0.033333
-46.100317 67.267459 330.964183 -7.713250 -5.344408 -33.669869 0.488856 -1.270889 33.151591 0.294472 -0.076450 -0.282351 2.195761 5.313908 1.772448 0.000000 0.000000 0.000000 -59.311561 -10.081011 14.424423 -10.956507 7.001971 -3.533775 -7.769037 10.672883 3.402202 21.052744 -0.382588 -11.763258 0.000000 0.000000 0.000000 0.000000 0.000000 0.000000 27.056786 -27.168406 7.700650 -14.881917 -34.944771 -5.504690 41.470719 1.510956 -10.411125 -25.094502 -6.842407 9.586085 0.000000 0.000000 0.000000 0.000000 0.000000 0.000000 2.164350 10.865558 32.619368 2.880787 -1.337225 0.867331 -4.704174 -0.510751 0.305245 0.000000 0.000000 0.000000 3.473330 5.634936 33.018279 3.283767 3.028392 -0.250190 3.028586 -1.618502 -1.756891 0.000000 0.000000 0.000000
-46.091726 67.235111 330.712846 -8.411090 -5.740306 -30.887443 0.432828 -0.967863 30.299685 0.327994 0.026889 -0.300131 2.232815 5.776435 1.739509 0.000000 0.000000 0.000000 -63.742174 -20.083297 10.612137 -15.137284 7.497023 -6.691042 -11.549467 8.458863 -5.456048 24.030678 4.544221 -6.345086 0.000000 0.000000 0.000000 0.000000 0.000000 0.000000 22.742505 -29.050094 5.714566 -15.060949 -36.573709 -4.397837 43.758711 3.397156 -14.871144 -24.457365 -9.335857 10.984618 0.000000 0.000000 0.000000 0.000000 0.000000 0.000000 3.548527 11.681816 29.599179 2.281596 -1.359365 0.853200 -7.529368 -5.302790 -2.520768 0.000000 0.000000 0.000000 4.331870 5.501889 30.144019 3.365319 3.363696 -0.214122 0.727434 1.750119 0.063009 0.000000 0.000000 0.000000
-46.058403 67.257030 330.483863 -8.850572 -5.931590 -28.794133 0.455428 -0.847044 28.160300 0.327361 -0.012083 -0.315421 1.543174 6.000425 1.961031 0.000000 0.000000 0.000000 -67.574331 -24.031369 8.939930 -15.683968 7.923633 -8.180595 -16.867487 6.997201 -11.086712 28.261548 6.894065 -4.755678 0.000000 0.000000 0.000000 0.000000 0.000000 0.000000 24.303492 -27.028402 6.053553 -16.370295 -38.538940 -4.847240 44.140607 5.927749 -17.143286 -23.740936 -12.551487 11.664371 0.000000 0.000000 0.000000 0.000000 0.000000 0.000000 4.562470 11.990489 27.352769 1.980039 -1.294058 0.828278 -7.299974 -3.702377 -1.521216 0.000000 0.000000 0.000000 4.923315 5.313693 27.992757 3.424862 3.482316 -0.159513 0.702262 1.731398 -0.134463 0.000000 0.000000 0.000000
-46.071156 67.330494 330.322472 -9.129375 -6.039188 -27.626266 0.493308 -0.708264 26.965188 0.341942 -0.030521 -0.323392 1.013173 5.938376 2.152055 0.000000 0.000000 0.000000 -70.057552 -23.199089 9.593499 -14.847015 9.480218 -5.598683 -19.049326 8.072661 -6.804532 29.529894 3.237115 -9.940493 0.000000 0.000000 0.000000 0.000000 0.000000 0.000000 24.092590 -26.456572 5.834423 -15.116553 -38.290547 -5.127926 43.375012 3.064473 -14.181293 -24.760937 -9.614494 11.406288 0.000000 0.000000 0.000000 0.000000 0.000000 0.000000 5.263102 12.139495 26.084966 1.828369 -1.205152 0.813991 -5.582694 3.098180 2.489705 0.000000 0.000000 0.000000 5.225008 5.404425 26.774990 3.560676 3.229252 -0.060729 0.372421 2.117492 -0.124198 0.000000 0.000000 0.000000
-46.107813 67.360689 330.344223 -9.343586 -6.237368 -27.465601 0.555401 -0.637849 26.772703 0.351206 -0.073406 -0.329501 0.938908 6.096767 2.219730 0.000000 0.000000 0.000000 -69.818791 -15.105224 14.391262 -13.733354 9.352395 -1.843134 -19.362747 9.187782 -1.047269 29.256838 1.324795 -13.547413 0.000000 0.000000 0.000000 0.000000 0.000000 0.000000 22.496052 -28.301055 5.194150 -14.129679 -37.705190 -4.736819 40.862443 0.415892 -8.677982 -24.559814 -3.594093 9.662721 0.000000 0.000000 0.000000 0.000000 0.000000 0.000000 5.413887 12.369154 25.877272 2.082992 -1.084251 0.823343 -3.051885 13.158021 7.899817 0.000000 0.000000 0.000000 5.099804 6.140670 26.521403 3.728780 2.326446 0.177884 1.868003 -0.068570 -1.838727 0.000000 0.000000 0.000000
-46.381290 67.323004 330.486227 -9.564874 -6.273385 -27.957522 0.753916 -0.525549 27.237041 0.392280 -0.088201 -0.329585 0.798049 6.243027 2.213863 0.000000 0.000000 0.000000 -67.259647 -3.713565 19.739800 -12.140568 8.427948 2.039770 -16.975683 9.398881 2.137828 26.176786 2.847959 -13.360936 0.000000 0.000000 0.000000 0.000000 0.000000 0.000000 22.596309 -29.253191 5.330934 -12.523976 -35.673102 -4.859290 39.160575 -0.389036 -5.656461 -25.606283 -0.946580 10.219996 0.000000 0.000000 0.000000 0.000000 0.000000 0.000000 5.707938 12.613802 26.303563 2.272395 -0.907131 0.842439 -0.414689 24.129693 13.142653 0.000000 0.000000 0.000000 5.292251 7.009703 26.972149 3.801264 1.272304 0.382143 -2.412241 6.196151 1.686376 0.000000 0.000000 0.000000
